<svg width="49" height="20" viewBox="0 0 49 20" fill="none" xmlns="http://www.w3.org/2000/svg">
<path d="M26.1887 4.87734L43.2234 0.312906C45.1939 -0.215103 47.2194 0.954314 47.7474 2.92487L48.9776 7.51599L31.2293 12.2716C29.6529 12.694 28.0325 11.7585 27.6101 10.1821L26.1887 4.87734Z" fill="#6B44B3"/>
<path d="M33.2308 8.67839C32.8096 8.79125 32.449 8.75463 32.1489 8.56852C31.8514 8.38174 31.6459 8.07649 31.5324 7.65276L31.5242 7.62232C31.4154 7.21636 31.4507 6.85066 31.63 6.52524C31.8086 6.19728 32.0895 5.98197 32.4726 5.87931C32.7974 5.79229 33.0868 5.80175 33.3409 5.90771C33.5976 6.01299 33.7826 6.21632 33.896 6.5177L33.3822 6.65537C33.3046 6.47763 33.2007 6.35864 33.0703 6.29839C32.9418 6.23492 32.7799 6.22936 32.5845 6.28171C32.346 6.34562 32.1783 6.48575 32.0812 6.70211C31.9835 6.91593 31.9751 7.17381 32.056 7.47574L32.0642 7.50619C32.1464 7.8132 32.2804 8.03427 32.4662 8.16941C32.6513 8.30202 32.8695 8.33466 33.1207 8.26736C33.3135 8.21569 33.4579 8.12533 33.5538 7.99628C33.6491 7.8647 33.6855 7.70129 33.6631 7.50605L34.1579 7.37348C34.2062 7.70591 34.1462 7.98441 33.9779 8.20897C33.8122 8.43286 33.5632 8.58933 33.2308 8.67839Z" fill="white"/>
<path d="M35.713 5.05592L36.3752 4.87848L38.0026 7.35901L37.4773 7.49974L37.0799 6.88423L36.0409 7.16263L36.0083 7.89338L35.5325 8.02085L35.713 5.05592ZM36.06 6.76185L36.863 6.54667L36.1248 5.3902L36.06 6.76185Z" fill="white"/>
<path d="M38.636 4.2727L39.5495 4.02795C39.8615 3.94433 40.1266 3.94401 40.3446 4.027C40.5627 4.10998 40.7077 4.28595 40.7798 4.5549L40.7839 4.57012C40.8852 4.94817 40.7487 5.2458 40.3745 5.463L41.4546 6.43404L40.9066 6.58089L39.9001 5.67169L39.5766 5.75837L39.8714 6.85827L39.3652 6.9939L38.636 4.2727ZM39.887 5.28769C40.2321 5.19523 40.3658 5.00438 40.2883 4.71513L40.2843 4.69991C40.2435 4.54767 40.1702 4.45174 40.0644 4.4121C39.9611 4.37179 39.8245 4.3744 39.6545 4.41995L39.2473 4.52907L39.4798 5.39681L39.887 5.28769Z" fill="white"/>
<path d="M43.5023 5.45704C43.8043 5.37614 44.0083 5.23444 44.1145 5.03194C44.22 4.82691 44.2317 4.57089 44.1494 4.26388L44.1412 4.23344C43.9733 3.60673 43.5874 3.37429 42.9835 3.53609L42.6905 3.61462L43.2055 5.53658L43.5023 5.45704ZM42.0772 3.35063L42.9031 3.12934C43.3624 3.00628 43.7435 3.03332 44.0466 3.21045C44.3516 3.38437 44.5588 3.67558 44.6682 4.08407L44.6774 4.11833C44.7875 4.52936 44.755 4.89023 44.58 5.20093C44.4049 5.51163 44.0864 5.72884 43.6246 5.85258L42.8064 6.07183L42.0772 3.35063Z" fill="white"/>
<path d="M5.26575 19.3754C3.00506 19.9811 1.58912 19.3856 1.01794 17.5889L3.24438 16.9923C3.37422 17.3246 3.54326 17.5445 3.75151 17.6518C4.00652 17.8119 4.36238 17.8308 4.81909 17.7084C5.15401 17.6187 5.39343 17.477 5.53736 17.2834C5.68129 17.0899 5.7196 16.8675 5.6523 16.6163C5.58907 16.3803 5.4498 16.2259 5.23448 16.1531C5.05981 16.1102 4.69866 16.1172 4.15101 16.1742C2.95731 16.3472 2.08771 16.2987 1.54221 16.0288C0.983529 15.7706 0.593031 15.2267 0.370718 14.397C0.170841 13.651 0.289311 12.9666 0.726128 12.3438C1.17613 11.7092 1.88448 11.2625 2.85117 11.0034C4.85306 10.467 6.15373 11.0282 6.75318 12.6868L4.58382 13.2681C4.34305 12.7044 3.91439 12.5052 3.29783 12.6704C2.98575 12.754 2.76712 12.882 2.64195 13.0542C2.51473 13.2188 2.47968 13.4077 2.53679 13.6208C2.59798 13.8492 2.7314 13.997 2.93707 14.0642C3.15646 14.1523 3.51687 14.1577 4.0183 14.0805C5.14907 13.9162 5.99046 13.9355 6.54248 14.1383C7.17782 14.4086 7.60563 14.9548 7.82591 15.7769C8.03394 16.5533 7.91983 17.2692 7.48355 17.9245C7.01738 18.6205 6.27812 19.1041 5.26575 19.3754Z" fill="white"/>
<path d="M11.6101 15.0444C12.0628 15.3636 12.5784 15.4458 13.1569 15.2908C13.7354 15.1358 14.136 14.8041 14.3587 14.2957C14.5815 13.7873 14.5949 13.1677 14.3991 12.437L14.3747 12.3457C14.1809 11.6225 13.8587 11.1052 13.4081 10.7935C12.963 10.4722 12.4513 10.3891 11.8728 10.5441C11.2867 10.7011 10.8802 11.0262 10.6534 11.5194C10.4342 12.0105 10.4235 12.6253 10.6213 13.3636L10.6458 13.4549C10.8436 14.1933 11.1651 14.7231 11.6101 15.0444ZM13.6037 17.1412C12.3097 17.488 11.1629 17.3792 10.1633 16.8149C9.19256 16.2673 8.53996 15.3694 8.20547 14.1211L8.181 14.0297C7.85263 12.8042 7.99825 11.6883 8.61785 10.682C9.22074 9.70462 10.1425 9.04971 11.3833 8.71726C12.6392 8.38073 13.7723 8.46872 14.7826 8.98121C15.803 9.53177 16.4784 10.4236 16.8088 11.6567L16.8333 11.748C17.176 13.0268 17.0524 14.149 16.4627 15.1147C15.866 16.1149 14.913 16.7904 13.6037 17.1412Z" fill="white"/>
<path d="M22.7624 14.6872C21.5902 15.0013 20.6145 14.9527 19.8353 14.5415C19.0617 14.1206 18.523 13.343 18.2191 12.2089L16.9189 7.35638L19.2595 6.72921L20.5322 11.4789C20.6933 12.0803 20.9019 12.4935 21.158 12.7186C21.4197 12.934 21.7903 12.9774 22.2698 12.8489C22.7494 12.7205 23.0448 12.4985 23.1561 12.1832C23.275 11.8658 23.2498 11.3912 23.0805 10.7594L21.817 6.04392L24.1805 5.41064L25.4715 10.2289C25.7856 11.4011 25.6966 12.3631 25.2047 13.115C24.7335 13.8531 23.9194 14.3772 22.7624 14.6872Z" fill="white"/>
<path d="M25.7956 4.97786L28.1476 4.34763L29.8486 10.6958L32.9314 9.86981L33.4178 11.6852L27.983 13.1415L25.7956 4.97786Z" fill="white"/>
</svg>
