<svg width="85" height="43" viewBox="0 0 85 43" fill="none" xmlns="http://www.w3.org/2000/svg">
<path d="M15.2163 18.312C12.8643 18.312 11.0403 17.808 9.74425 16.8C8.44825 15.792 7.81625 14.36 7.84825 12.504H12.9363C13.0323 13.816 13.8323 14.472 15.3363 14.472C16.6323 14.488 17.2803 14 17.2803 13.008C17.2803 12.656 17.1123 12.376 16.7763 12.168C16.4563 11.96 15.8883 11.776 15.0723 11.616C12.9603 11.216 11.4643 10.616 10.5843 9.816C9.70425 9.016 9.26425 7.896 9.26425 6.456C9.26425 4.744 9.89625 3.344 11.1603 2.256C12.4243 1.152 14.1603 0.599999 16.3683 0.599999C18.5123 0.599999 20.1683 1.056 21.3363 1.968C22.5043 2.864 23.0723 4.232 23.0403 6.072H18.0723C18.0083 4.968 17.3923 4.416 16.2243 4.416C15.0883 4.416 14.5203 4.848 14.5203 5.712C14.5203 6.08 14.6723 6.36 14.9763 6.552C15.2803 6.744 15.8563 6.92 16.7043 7.08C18.7363 7.48 20.2243 8.072 21.1683 8.856C22.1283 9.624 22.6083 10.736 22.6083 12.192C22.6083 14.032 21.9603 15.504 20.6643 16.608C19.3843 17.712 17.5683 18.28 15.2163 18.312ZM42.6119 8.16C42.6119 11.184 41.6839 13.632 39.8279 15.504C37.9719 17.376 35.5319 18.312 32.5079 18.312C30.1239 18.312 28.1319 17.648 26.5319 16.32C24.9319 14.992 24.1319 13.152 24.1319 10.8C24.1319 7.792 25.0519 5.336 26.8919 3.432C28.7319 1.528 31.1159 0.576 34.0439 0.576C36.5079 0.576 38.5479 1.24 40.1639 2.568C41.7959 3.88 42.6119 5.744 42.6119 8.16ZM36.9479 8.352C36.9479 7.312 36.6999 6.472 36.2039 5.832C35.7079 5.192 34.9319 4.856 33.8759 4.824C32.5639 4.824 31.5479 5.392 30.8279 6.528C30.1239 7.648 29.7719 9.008 29.7719 10.608C29.7719 11.664 30.0279 12.504 30.5399 13.128C31.0679 13.736 31.8519 14.04 32.8919 14.04C34.2039 14.04 35.2039 13.488 35.8919 12.384C36.5959 11.264 36.9479 9.92 36.9479 8.352ZM51.7662 18.312C49.0622 18.312 47.0462 17.648 45.7182 16.32C44.3902 14.992 43.9342 13.048 44.3502 10.488L45.9102 0.839999H51.3342L49.7742 10.656C49.5982 11.824 49.6702 12.68 49.9902 13.224C50.3102 13.768 50.9342 14.04 51.8622 14.04C52.7262 14.04 53.3502 13.8 53.7342 13.32C54.1182 12.824 54.3902 12.032 54.5502 10.944L56.1582 0.839999H61.6302L59.9502 11.376C59.5822 13.76 58.7342 15.512 57.4062 16.632C56.0782 17.752 54.1982 18.312 51.7662 18.312ZM64.639 0.839999H70.087L68.047 13.8H74.287L73.615 18H61.927L64.639 0.839999Z" fill="white"/>
<path d="M9.40131 42.312C6.77731 42.312 4.70531 41.664 3.18531 40.368C1.66531 39.072 0.905313 37.2 0.905313 34.752C0.905313 31.728 1.76931 29.28 3.49731 27.408C5.22531 25.52 7.58531 24.576 10.5773 24.576C12.9613 24.576 14.8253 25.144 16.1693 26.28C17.5133 27.416 18.2333 29.104 18.3293 31.344H12.8573C12.7773 30.496 12.5453 29.864 12.1613 29.448C11.7933 29.032 11.2173 28.824 10.4333 28.824C9.20131 28.824 8.24931 29.368 7.57731 30.456C6.92131 31.528 6.59331 32.88 6.59331 34.512C6.59331 36.848 7.54531 38.016 9.44931 38.016C11.0493 38.016 12.0733 37.152 12.5213 35.424H17.9213C17.5853 37.648 16.6333 39.352 15.0653 40.536C13.5133 41.72 11.6253 42.312 9.40131 42.312ZM21.6312 24.84H28.4232C30.5672 24.84 32.1832 25.28 33.2712 26.16C34.3752 27.024 34.9272 28.24 34.9272 29.808C34.9272 31.168 34.5832 32.296 33.8952 33.192C33.2072 34.072 32.2792 34.68 31.1112 35.016L34.1832 42H28.6872L26.1432 36.12H25.2552L24.3432 42H18.9192L21.6312 24.84ZM27.2952 32.616C28.8472 32.616 29.6232 31.92 29.6232 30.528C29.6232 29.456 28.9752 28.92 27.6792 28.92H26.4072L25.8072 32.616H27.2952ZM46.4914 39.144H41.0914L39.8674 42H34.6594L42.7954 24.84H49.8034L52.4674 42H46.8274L46.4914 39.144ZM42.6994 35.448H46.0834L45.3874 29.232L42.6994 35.448ZM56.9046 24.84H68.7846L68.1126 29.04H61.6806L61.2006 32.232H66.3606L65.7126 36.24H60.5526L59.6406 42H54.1926L56.9046 24.84ZM73.7929 29.016H69.4489L70.1449 24.84H84.2809L83.6089 29.016H79.2649L77.2249 42H71.7529L73.7929 29.016Z" fill="url(#paint0_linear)"/>
<defs>
<linearGradient id="paint0_linear" x1="-5" y1="22.5" x2="88" y2="22.5" gradientUnits="userSpaceOnUse">
<stop stop-color="#E476FB"/>
<stop offset="1" stop-color="#7343DF"/>
</linearGradient>
</defs>
</svg>
